<svg width="28" height="28" viewBox="0 0 28 28" fill="none" xmlns="http://www.w3.org/2000/svg">
<g clip-path="url(#clip0_213_3451)">
<path d="M7.12474 0.25C6.5823 0.25 6.14258 0.68972 6.14258 1.23216V3.19643H8.10685V1.23216C8.10685 0.68972 7.66713 0.25 7.12474 0.25Z" fill="white"/>
<path d="M20.8747 0.25C20.3323 0.25 19.8926 0.68972 19.8926 1.23216V3.19643H21.8568V1.23216C21.8569 0.68972 21.4172 0.25 20.8747 0.25Z" fill="white"/>
<path d="M24.8036 3.19629H21.8571V7.12488C21.8571 7.66732 21.4174 8.10704 20.875 8.10704C20.3325 8.10704 19.8928 7.66732 19.8928 7.12488V3.19629H8.10712V7.12488C8.10712 7.66732 7.6674 8.10704 7.12496 8.10704C6.58252 8.10704 6.1428 7.66732 6.1428 7.12488V3.19629H3.19643C1.56916 3.19629 0.25 4.51545 0.25 6.14272V24.8034C0.25 26.4307 1.56916 27.7499 3.19643 27.7499H24.8036C26.4308 27.7499 27.75 26.4307 27.75 24.8034V6.14272C27.75 4.51545 26.4308 3.19629 24.8036 3.19629ZM25.7857 24.8034C25.7857 25.3459 25.346 25.7856 24.8035 25.7856H3.19643C2.65398 25.7856 2.21427 25.3459 2.21427 24.8034V12.0356H25.7857V24.8034Z" fill="white"/>
<path d="M8.10756 14H6.1433C5.60085 14 5.16113 14.4397 5.16113 14.9822C5.16113 15.5246 5.60085 15.9643 6.1433 15.9643H8.10756C8.65001 15.9643 9.08973 15.5246 9.08973 14.9822C9.08973 14.4397 8.65001 14 8.10756 14Z" fill="white"/>
<path d="M14.9826 14H13.0183C12.4759 14 12.0361 14.4397 12.0361 14.9822C12.0361 15.5246 12.4759 15.9643 13.0183 15.9643H14.9826C15.525 15.9643 15.9647 15.5246 15.9647 14.9822C15.9647 14.4397 15.525 14 14.9826 14Z" fill="white"/>
<path d="M21.8576 14H19.8933C19.3509 14 18.9111 14.4397 18.9111 14.9822C18.9111 15.5246 19.3509 15.9643 19.8933 15.9643H21.8576C22.4 15.9643 22.8397 15.5246 22.8397 14.9822C22.8397 14.4397 22.3999 14 21.8576 14Z" fill="white"/>
<path d="M8.10756 17.9287H6.1433C5.60085 17.9287 5.16113 18.3684 5.16113 18.9109C5.16113 19.4533 5.60085 19.893 6.1433 19.893H8.10756C8.65001 19.893 9.08973 19.4533 9.08973 18.9109C9.08973 18.3684 8.65001 17.9287 8.10756 17.9287Z" fill="white"/>
<path d="M14.9826 17.9287H13.0183C12.4759 17.9287 12.0361 18.3684 12.0361 18.9109C12.0361 19.4533 12.4759 19.893 13.0183 19.893H14.9826C15.525 19.893 15.9647 19.4533 15.9647 18.9109C15.9647 18.3684 15.525 17.9287 14.9826 17.9287Z" fill="white"/>
<path d="M21.8576 17.9287H19.8933C19.3509 17.9287 18.9111 18.3684 18.9111 18.9109C18.9111 19.4533 19.3509 19.893 19.8933 19.893H21.8576C22.4 19.893 22.8397 19.4533 22.8397 18.9109C22.8397 18.3684 22.3999 17.9287 21.8576 17.9287Z" fill="white"/>
<path d="M8.10756 21.8569H6.1433C5.60085 21.8569 5.16113 22.2967 5.16113 22.8391C5.16113 23.3815 5.60085 23.8212 6.1433 23.8212H8.10756C8.65001 23.8212 9.08973 23.3815 9.08973 22.839C9.08973 22.2966 8.65001 21.8569 8.10756 21.8569Z" fill="white"/>
<path d="M14.9826 21.8569H13.0183C12.4759 21.8569 12.0361 22.2967 12.0361 22.8391C12.0361 23.3815 12.4759 23.8213 13.0183 23.8213H14.9826C15.525 23.8213 15.9647 23.3815 15.9647 22.8391C15.9647 22.2967 15.525 21.8569 14.9826 21.8569Z" fill="white"/>
<path d="M21.8576 21.8569H19.8933C19.3509 21.8569 18.9111 22.2967 18.9111 22.8391C18.9111 23.3815 19.3509 23.8213 19.8933 23.8213H21.8576C22.4 23.8213 22.8397 23.3815 22.8397 22.8391C22.8397 22.2967 22.3999 21.8569 21.8576 21.8569Z" fill="white"/>
</g>
<defs>
<clipPath id="clip0_213_3451">
<rect width="27.5" height="27.5" fill="white" transform="translate(0.25 0.25)"/>
</clipPath>
</defs>
</svg>
