<svg width="40" height="40" viewBox="0 0 40 40" fill="none" xmlns="http://www.w3.org/2000/svg">
<path d="M4.99998 5H35C35.442 5 35.8659 5.17559 36.1785 5.48816C36.4911 5.80072 36.6666 6.22464 36.6666 6.66667V33.3333C36.6666 33.7754 36.4911 34.1993 36.1785 34.5118C35.8659 34.8244 35.442 35 35 35H4.99998C4.55795 35 4.13403 34.8244 3.82147 34.5118C3.50891 34.1993 3.33331 33.7754 3.33331 33.3333V6.66667C3.33331 6.22464 3.50891 5.80072 3.82147 5.48816C4.13403 5.17559 4.55795 5 4.99998 5ZM20.1 19.4717L9.41331 10.3967L7.25498 12.9367L20.1216 23.8617L32.7566 12.9283L30.5766 10.4067L20.1016 19.4717H20.1Z" fill="white"/>
</svg>
