<svg width="18" height="18" viewBox="0 0 18 18" fill="none" xmlns="http://www.w3.org/2000/svg" class="info__icon">
<path d="M16.6215 4.24219C16.0489 4.49546 15.4417 4.66179 14.82 4.73569C15.4753 4.34376 15.9658 3.72695 16.2 3.00019C15.585 3.36619 14.9107 3.62269 14.208 3.76144C13.736 3.25637 13.1103 2.92141 12.4282 2.80863C11.7462 2.69584 11.0459 2.81156 10.4364 3.13778C9.82694 3.464 9.34229 3.98245 9.05783 4.61253C8.77338 5.24262 8.70506 5.94902 8.86349 6.62194C7.61632 6.55943 6.39624 6.23533 5.28246 5.67069C4.16868 5.10604 3.18609 4.31347 2.39849 3.34444C2.11971 3.82328 1.97321 4.36761 1.97399 4.92169C1.97399 6.00919 2.52749 6.96994 3.36899 7.53244C2.871 7.51676 2.38397 7.38227 1.94849 7.14019V7.17919C1.94864 7.90346 2.19927 8.6054 2.65788 9.16598C3.11649 9.72657 3.75486 10.1113 4.46474 10.2549C4.00245 10.3802 3.51772 10.3987 3.04724 10.3089C3.24739 10.9324 3.6375 11.4776 4.16294 11.8683C4.68838 12.259 5.32284 12.4755 5.97749 12.4877C5.32685 12.9987 4.58188 13.3764 3.78515 13.5993C2.98843 13.8222 2.15559 13.8859 1.33424 13.7867C2.76802 14.7088 4.43707 15.1983 6.14174 15.1967C11.9115 15.1967 15.0667 10.4169 15.0667 6.27169C15.0667 6.13669 15.063 6.00019 15.057 5.86669C15.6711 5.42281 16.2012 4.87295 16.6222 4.24294L16.6215 4.24219Z" fill="white"/>
</svg>
